<?xml version="1.0" standalone="no"?><!DOCTYPE svg PUBLIC "-//W3C//DTD SVG 1.1//EN" "http://www.w3.org/Graphics/SVG/1.1/DTD/svg11.dtd"><svg class="icon" width="64px" height="64.00px" viewBox="0 0 1024 1024" version="1.1" xmlns="http://www.w3.org/2000/svg"><path d="M579.298 937.415l308.479-308.677c26.595-26.614 41.673-62.573 41.909-99.974l2.22-348.313c0.309-48.169-38.466-86.964-86.605-86.659l-348.086 2.22c-37.377 0.238-73.312 15.323-99.907 41.935L88.829 446.624c-34.254 34.278-34.605 89.498-0.783 123.341l367.996 368.239c33.819 33.841 89.003 33.489 123.256-0.789z" fill="#FFA820" /><path d="M89.342 446.111l-0.513 0.513c-34.254 34.278-34.605 89.498-0.783 123.341l25.218 25.234c-15.521-45.277-23.952-93.846-23.952-144.385 0-1.57 0.013-3.137 0.03-4.703zM931.464 249.663l0.441-69.213c0.309-48.169-38.466-86.964-86.605-86.659l-44.791 0.286c54.757 40.918 99.772 94.149 130.955 155.586zM631.439 885.24c-31.249 6.952-63.732 10.626-97.075 10.626-50.643 0-99.308-8.466-144.664-24.048l66.342 66.386c33.819 33.84 89.003 33.489 123.256-0.79l52.141-52.174z" fill="#FEAC33" /><path d="M631.439 885.24l256.337-256.503c26.595-26.614 41.673-62.573 41.909-99.975l1.779-279.1c-31.183-61.437-76.198-114.668-130.955-155.586l-97.468 0.622c117.224 65.757 196.442 191.224 196.442 335.195 0 212.115-171.953 384.069-384.069 384.069S131.346 642.009 131.346 429.894c0-8.989 0.316-17.904 0.924-26.739l-42.929 42.956c-0.016 1.566-0.03 3.133-0.03 4.704 0 50.54 8.431 99.109 23.952 144.385L389.7 871.819c45.356 15.582 94.021 24.048 144.664 24.048 33.343 0 65.826-3.675 97.075-10.627z" fill="#FEB133" /><path d="M515.415 813.962c212.115 0 384.069-171.953 384.069-384.069 0-143.971-79.218-269.437-196.442-335.195l-128.059 0.817C715.47 130.594 819.551 257.62 819.551 408.973c0 178.435-144.65 323.085-323.085 323.085s-323.085-144.65-323.085-323.085c0-17.346 1.384-34.368 4.016-50.974l-45.127 45.156a389.386 389.386 0 0 0-0.924 26.739c0 212.115 171.954 384.068 384.069 384.068z" fill="#FEB633" /><path d="M496.466 732.058c178.435 0 323.085-144.65 323.085-323.085 0-151.353-104.081-278.379-244.569-313.457l-77.768 0.496c-37.377 0.238-73.312 15.323-99.907 41.935l-0.775 0.775c25.506-8.279 52.719-12.772 80.984-12.772 144.755 0 262.101 117.347 262.101 262.101s-117.346 262.102-262.1 262.102-262.101-117.347-262.101-262.101c0-28.206 4.474-55.364 12.719-80.824l-50.738 50.771a325.426 325.426 0 0 0-4.016 50.974c0 178.435 144.65 323.085 323.085 323.085z" fill="#FFBC34" /><path d="M477.517 650.153c144.755 0 262.101-117.347 262.101-262.101S622.271 125.951 477.517 125.951c-28.266 0-55.478 4.493-80.984 12.772L228.135 307.228c-8.246 25.46-12.719 52.617-12.719 80.824 0 144.754 117.346 262.101 262.101 262.101z m-18.949-484.14c111.074 0 201.118 90.043 201.118 201.118s-90.043 201.118-201.118 201.118S257.45 478.205 257.45 367.131s90.044-201.118 201.118-201.118z" fill="#FFC134" /><path d="M458.568 568.249c111.074 0 201.118-90.043 201.118-201.118s-90.043-201.118-201.118-201.118S257.45 256.057 257.45 367.131s90.044 201.118 201.118 201.118z m-18.949-362.173c77.394 0 140.134 62.74 140.134 140.134s-62.74 140.134-140.134 140.134-140.134-62.74-140.134-140.134 62.74-140.134 140.134-140.134z" fill="#FFC634" /><path d="M439.619 346.21m-140.134 0a140.134 140.134 0 1 0 280.268 0 140.134 140.134 0 1 0-280.268 0Z" fill="#FFCB34" /><path d="M845.864 111.79c18.328 0 35.486 7.11 48.314 20.019 12.84 12.922 19.846 30.156 19.728 48.526l-2.22 348.314c-0.102 16.249-3.356 32.125-9.67 47.187-6.32 15.075-15.394 28.592-26.971 40.178L566.566 924.692c-13.316 13.326-30.938 20.664-49.619 20.664-18.256 0-35.364-7.058-48.172-19.875L100.778 557.242c-26.755-26.772-26.404-70.687 0.783-97.894L410.04 150.671c11.575-11.583 25.082-20.662 40.145-26.985 15.048-6.316 30.91-9.571 47.145-9.675l348.087-2.22 0.447-0.001m0-18l-0.564 0.002-348.086 2.22c-37.377 0.238-73.312 15.323-99.907 41.935L88.829 446.624c-34.254 34.278-34.605 89.498-0.783 123.341l367.996 368.239c16.767 16.777 38.789 25.151 60.905 25.151 22.492 0 45.081-8.657 62.352-25.941l308.478-308.677c26.595-26.614 41.673-62.573 41.909-99.974l2.22-348.313c0.307-47.978-38.168-86.66-86.042-86.66z" fill="#FFA820" /><path d="M628.219 205.388c98.007 0 177.452 79.445 177.452 177.452 0 98.001-79.445 177.452-177.452 177.452-98.001 0-177.45-79.45-177.45-177.452 0-98.007 79.449-177.452 177.45-177.452z" fill="#FFE3B4" /><path d="M210.902 435.272A17.944 17.944 0 0 1 198.174 430c-7.029-7.03-7.029-18.426 0-25.456l87.766-87.766c7.029-7.029 18.427-7.029 25.456 0 7.029 7.03 7.029 18.426 0 25.456L223.63 430a17.945 17.945 0 0 1-12.728 5.272z" fill="#FFFFFF" /><path d="M161.684 484.49a17.947 17.947 0 0 1-12.728-5.271c-7.029-7.03-7.029-18.426 0-25.456l7.457-7.457c7.029-7.029 18.427-7.029 25.456 0 7.029 7.03 7.029 18.426 0 25.456l-7.457 7.457a17.947 17.947 0 0 1-12.728 5.271z" fill="#FFFFFF" /></svg>