<?xml version="1.0" standalone="no"?><!DOCTYPE svg PUBLIC "-//W3C//DTD SVG 1.1//EN" "http://www.w3.org/Graphics/SVG/1.1/DTD/svg11.dtd"><svg class="icon" width="64px" height="64.00px" viewBox="0 0 1024 1024" version="1.1" xmlns="http://www.w3.org/2000/svg"><path d="M253.1 845.9h622c9.3 0 16.8 7.5 16.8 16.8v67.2c0 9.3-7.5 16.8-16.8 16.8h-622c-9.3 0-16.8-7.5-16.8-16.8v-67.2c0-9.3 7.5-16.8 16.8-16.8z" fill="#FFEE91" /><path d="M513.6 417.2m-327.8 0a327.8 327.8 0 1 0 655.6 0 327.8 327.8 0 1 0-655.6 0Z" fill="#FFEE91" /><path d="M714.4 158.6c44.1 57.2 68.1 127.5 68.2 199.7 0 181-146.8 327.8-327.8 327.8C382 686 311.4 661.7 254 617c62 80.7 157.9 128 259.6 128 181 0 327.8-146.8 327.8-327.8-0.1-101.1-47-196.6-127-258.6z" fill="#F9D151" /><path d="M152.2 745h622c9.3 0 16.8 7.5 16.8 16.8V829c0 9.3-7.5 16.8-16.8 16.8h-622c-9.3 0-16.8-7.5-16.8-16.8v-67.2c0-9.3 7.5-16.8 16.8-16.8z" fill="#FFEE91" /><path d="M681.7 745v100.9h92.5c9.3 0 16.8-7.5 16.8-16.8v-67.2c0-9.3-7.5-16.8-16.8-16.8l-92.5-0.1zM160.6 745H211v100.9h-50.4V745zM278.3 745h67.2v100.9h-67.2V745zM379.1 845.9h67.2v100.9h-67.2V845.9zM513.6 845.9h67.2v100.9h-67.2V845.9zM782.6 845.9v100.9h92.5c9.3 0 16.8-7.5 16.8-16.8v-67.2c0-9.3-7.5-16.8-16.8-16.8l-92.5-0.1z" fill="#F9D151" /><path d="M513.6 64.2c-194.7 0-353 158.3-353 353s158.3 353 353 353h252.1v75.6c0 13.9 11.3 25.2 25.2 25.2h75.6v50.4h-605v-75.6c0-13.9-11.3-25.2-25.2-25.2h-75.6v-50.4h92.5c13.9 0.2 25.4-10.9 25.6-24.9 0.2-13.9-10.9-25.4-24.9-25.6H152.2c-22.8 0-42 19.2-42 42v67.2c0 22.8 19.2 42 42 42H211v58.8c0 22.8 19.2 42 42 42h622c22.8 0 42-19.2 42-42v-67.2c0-22.8-19.2-42-42-42h-58.8v-58.8c0-22.8-19.2-42-42-42H513.6C346.2 719.8 211 584.6 211 417.2s135.2-302.6 302.6-302.6 302.6 135.2 302.6 302.6c0 89.4-38.6 169.4-100 224.8-10.5 9.1-11.7 25-2.6 35.6 9.1 10.5 25 11.7 35.6 2.6 0.3-0.2 0.5-0.5 0.8-0.7 71.6-64.6 116.7-158.3 116.7-262.3-0.1-194.6-158.4-353-353.1-353zM320.3 820.7c-13.9-0.2-25.4 10.9-25.6 24.9-0.2 13.9 10.9 25.4 24.9 25.6h387.3c13.9 0.2 25.4-10.9 25.6-24.9 0.2-13.9-10.9-25.4-24.9-25.6H320.3z" fill="#444852" /><path d="M437.1 266c-20.5 0.7-31.6 24.2-19.2 40.5l55.9 77.2h-35.4c-34.1-0.5-34.1 50.9 0 50.4h50.1v33.6h-50.1c-34.1-0.5-34.1 50.9 0 50.4h50.1v24.8c-0.5 34.1 50.9 34.1 50.4 0v-24.8H589c34.1 0.5 34.1-50.9 0-50.4h-50.1v-33.6H589c34.1 0.5 34.1-50.9 0-50.4h-35.4l55.9-77.2c12.4-16.5 0.7-40.1-19.9-40.3-8.3-0.1-16.1 3.9-20.9 10.7l-55 75.9-55-75.9c-4.9-7.1-13.1-11.2-21.6-10.9z" fill="#FFFFFF" /></svg>