<?xml version="1.0" standalone="no"?><!DOCTYPE svg PUBLIC "-//W3C//DTD SVG 1.1//EN" "http://www.w3.org/Graphics/SVG/1.1/DTD/svg11.dtd"><svg class="icon" width="64px" height="64.00px" viewBox="0 0 1024 1024" version="1.1" xmlns="http://www.w3.org/2000/svg"><path d="M585.142857 0C343.771429 0 146.285714 197.485714 146.285714 441.295238c0 119.466667 46.32381 226.742857 121.904762 307.2-21.942857 53.638095-39.009524 109.714286-51.2 158.476191-14.628571 58.514286 29.257143 117.028571 90.209524 117.028571h555.885714c60.952381 0 104.838095-58.514286 90.209524-117.028571-12.190476-48.761905-29.257143-104.838095-51.2-158.476191 75.580952-80.457143 121.904762-187.733333 121.904762-307.2C1024 197.485714 826.514286 0 585.142857 0z" fill="#FFC600" /><path d="M692.419048 775.314286c70.704762-73.142857 112.152381-170.666667 112.152381-277.942857C804.571429 275.504762 624.152381 97.52381 402.285714 97.52381S0 275.504762 0 497.371429c0 107.27619 43.885714 204.8 112.152381 277.942857-19.504762 48.761905-34.133333 99.961905-46.32381 143.847619-12.190476 53.638095 26.819048 104.838095 82.895239 104.838095h507.123809c56.07619 0 95.085714-51.2 82.895238-104.838095-12.190476-43.885714-26.819048-95.085714-46.323809-143.847619z" fill="#FFE27F" /><path d="M121.904762 597.333333c-14.628571-14.628571-14.628571-36.571429 0-51.2l160.914286-160.914285c14.628571-14.628571 36.571429-14.628571 51.2 0l131.657142 131.657142 138.971429-138.971428c14.628571-14.628571 36.571429-14.628571 51.2 0 14.628571 14.628571 14.628571 36.571429 0 51.2l-165.790476 165.790476c-14.628571 14.628571-36.571429 14.628571-51.2 0L309.638095 463.238095l-134.095238 134.095238c-17.066667 14.628571-39.009524 14.628571-53.638095 0z" fill="#FFFFFF" /></svg>